# xmcd
#
# Track frame offsets: 
#        150
#        14374
#        31437
#        57298
#        75190
#        92745
#        125126
#        147097
#        165379
#        182700
#        209094
#        232671
#        247174
#        264773
#        280004
#        303999
#
# Disc length: 4637 seconds
#
# Revision: 2
# Processed by: cddbd v1.5.2PL0 Copyright (c) Steve Scherf et al.
# Submitted via: ExactAudioCopy v1.0b6
#
DISCID=d0121b10
DTITLE=Various Artist - 25. Blues Baltica Bluesfest 2014
DYEAR=2014
DGENRE=Blues Sampler
TTITLE0=J.P.Soars and The Red Hots - Twitchin'
TTITLE1=Cash Box Kings - Black Toppin'
TTITLE2=Shakura S'Aida - That Ain't Right
TTITLE3=Lurrie Bell - I Ain't Nobody
TTITLE4=Nisse Thorbjörn - Goin' Down To Gainsville
TTITLE5=Boogie Boys - Fortepian I Ja
TTITLE6=Latvian Blues Band - Take Me Baby
TTITLE7=Shanna Waterstown - That's Just The Way It Is
TTITLE8=Mike Andersen - Play With Me
TTITLE9=Mike Seeber Trio - Daddy's Boogie
TTITLE10=Max Dega and Shurablues - Shurablues
TTITLE11=Jambirds - Step It Up And Go
TTITLE12=Gravelroad - Maybe The Wind
TTITLE13=Veronica and The Red Wine Serenaders - Come Along
TTITLE14=King King - Taken What's Mine
TTITLE15=Ole Frimer - Blues Junction - Workin' Too Much
EXTD=
EXTT0=
EXTT1=
EXTT2=
EXTT3=
EXTT4=
EXTT5=
EXTT6=
EXTT7=
EXTT8=
EXTT9=
EXTT10=
EXTT11=
EXTT12=
EXTT13=
EXTT14=
EXTT15=
PLAYORDER=
